<svg width="119" height="166" viewBox="0 0 119 166" fill="none" xmlns="http://www.w3.org/2000/svg">
<path d="M393.956 -70.2677C385.378 -115.397 361.406 -156.169 326.127 -185.635C290.848 -215.102 246.444 -231.44 200.481 -231.866C154.517 -232.293 109.839 -216.78 74.0576 -187.973C38.2764 -159.166 13.6066 -118.845 4.25148 -73.8821C-5.10361 -28.9189 1.43487 17.9051 22.7528 58.6117C44.0708 99.3183 78.8493 131.389 121.162 149.359C163.476 167.329 210.705 170.087 254.804 157.162C298.903 144.238 337.143 116.431 363.008 78.4791L335.062 59.4514C313.598 90.9453 281.865 114.021 245.27 124.746C208.675 135.471 169.481 133.183 134.368 118.271C99.2547 103.358 70.394 76.7447 52.7034 42.9646C35.0128 9.18452 29.5869 -29.6721 37.3502 -66.9845C45.1135 -104.297 65.5856 -137.756 95.2783 -161.662C124.971 -185.568 162.047 -198.44 200.19 -198.087C238.332 -197.733 275.18 -184.175 304.457 -159.722C333.733 -135.269 353.625 -101.435 360.744 -63.9851L393.956 -70.2677Z" fill="url(#paint0_linear_1525_138044)"/>
<defs>
<linearGradient id="paint0_linear_1525_138044" x1="34.2414" y1="-44.8031" x2="105.431" y2="141.882" gradientUnits="userSpaceOnUse">
<stop stop-color="#57D9B9"/>
<stop offset="1" stop-color="#57D9B9" stop-opacity="0"/>
</linearGradient>
</defs>
</svg>
