<svg width="314" height="220" viewBox="0 0 314 220" fill="none" xmlns="http://www.w3.org/2000/svg">
<path d="M766.546 -278.428C741.492 -365.209 687.101 -440.642 612.641 -491.873C538.181 -543.104 448.259 -566.963 358.197 -559.386C268.135 -551.809 183.505 -513.263 118.727 -450.318C53.9496 -387.372 13.0318 -303.92 2.94585 -214.182C-7.14006 -124.444 14.23 -33.9718 63.4148 41.8195C112.6 117.611 186.556 174.031 272.683 201.468C358.809 228.905 451.777 225.66 535.746 192.287C619.715 158.913 689.489 97.4759 733.18 18.4431L674.987 -13.6936C638.73 51.8913 580.828 102.875 511.147 130.569C441.467 158.264 364.318 160.957 292.846 138.189C221.374 115.42 160.002 68.6 119.186 5.70517C78.3708 -57.1897 60.637 -132.268 69.0067 -206.736C77.3764 -281.205 111.332 -350.456 165.087 -402.691C218.843 -454.927 289.072 -486.913 363.81 -493.201C438.547 -499.489 513.168 -479.689 574.958 -437.176C636.748 -394.662 681.884 -332.065 702.675 -260.05L766.546 -278.428Z" fill="url(#paint0_linear_1525_137978)"/>
<defs>
<linearGradient id="paint0_linear_1525_137978" x1="66.9801" y1="-162.742" x2="240.517" y2="189.709" gradientUnits="userSpaceOnUse">
<stop stop-color="#57D9B9"/>
<stop offset="1" stop-color="#57D9B9" stop-opacity="0"/>
</linearGradient>
</defs>
</svg>
