<svg width="73" height="166" viewBox="0 0 73 166" fill="none" xmlns="http://www.w3.org/2000/svg">
<path d="M240.551 -70.2686C235.323 -115.398 220.715 -156.17 199.217 -185.636C177.719 -215.103 150.66 -231.441 122.651 -231.867C94.6424 -232.294 67.4164 -216.781 45.6123 -187.974C23.8081 -159.167 8.77496 -118.846 3.0742 -73.8831C-2.62656 -28.9199 1.35782 17.9041 14.3485 58.6107C27.3391 99.3173 48.5322 131.388 74.3168 149.358C100.101 167.328 128.882 170.086 155.755 157.161C182.628 144.237 205.93 116.43 221.691 78.4781L204.662 59.4504C191.582 90.9443 172.245 114.02 149.945 124.745C127.644 135.47 103.761 133.182 82.3639 118.27C60.9668 103.357 43.3798 76.7437 32.5996 42.9636C21.8194 9.18351 18.513 -29.6731 23.2437 -66.9855C27.9745 -104.298 40.4496 -137.757 58.5437 -161.663C76.6377 -185.569 99.231 -198.441 122.474 -198.088C145.717 -197.734 168.172 -184.176 186.012 -159.723C203.852 -135.27 215.974 -101.436 220.312 -63.986L240.551 -70.2686Z" fill="url(#paint0_linear_1555_138151)"/>
<defs>
<linearGradient id="paint0_linear_1555_138151" x1="21.3493" y1="-44.8041" x2="117.507" y2="108.855" gradientUnits="userSpaceOnUse">
<stop stop-color="#57D9B9"/>
<stop offset="1" stop-color="#57D9B9" stop-opacity="0"/>
</linearGradient>
</defs>
</svg>
