<svg width="24" height="24" viewBox="0 0 24 24" fill="none" xmlns="http://www.w3.org/2000/svg">
<path fill-rule="evenodd" clip-rule="evenodd" d="M4.27765 3C3.57202 3 3 3.57202 3 4.27764V19.7223C3 20.4279 3.57202 21 4.27765 21H19.7224C20.428 21 21 20.4279 21 19.7223V4.27764C21 3.57202 20.428 3 19.7224 3H4.27765ZM7.04026 8.58979C7.90265 8.58979 8.60175 7.89068 8.60175 7.02829C8.60175 6.1659 7.90265 5.4668 7.04026 5.4668C6.17787 5.4668 5.47876 6.1659 5.47876 7.02829C5.47876 7.89068 6.17787 8.58979 7.04026 8.58979ZM10.0318 9.74378H12.6197V10.9293C12.6197 10.9293 13.322 9.52478 15.2327 9.52478C16.9372 9.52478 18.3492 10.3644 18.3492 12.9238V18.3208H15.6674V13.5778C15.6674 12.068 14.8613 11.9019 14.2471 11.9019C12.9724 11.9019 12.7542 13.0015 12.7542 13.7747V18.3208H10.0318V9.74378ZM8.40145 9.74379H5.67906V18.3208H8.40145V9.74379Z" fill="#C2C7CC"/>
</svg>
