<?xml version="1.0" encoding="utf-8"?>
<!-- Generator: Adobe Illustrator 26.5.3, SVG Export Plug-In . SVG Version: 6.00 Build 0)  -->
<svg version="1.1" id="Layer_1" xmlns="http://www.w3.org/2000/svg" xmlns:xlink="http://www.w3.org/1999/xlink" x="0px" y="0px"
	 viewBox="0 0 138 19" style="enable-background:new 0 0 138 19;" xml:space="preserve">
<style type="text/css">
	.st0{fill:#FFFFFF;}
</style>
<path class="st0" d="M52.5,11.5l-2-5.6c-0.1-0.3-0.6-0.3-0.7,0l-2,5.6l-1,2.8l-1.4,3.8c-0.1,0.1-0.2,0.2-0.3,0.2h-2.8
	c-0.3,0-0.4-0.2-0.3-0.5l6.4-17.3c0.1-0.1,0.2-0.2,0.3-0.2h3.1h0.1l6.4,17.5c0.1,0.2-0.1,0.5-0.3,0.5h-2.9c-0.2,0-0.3-0.1-0.3-0.2
	l-1.3-3.8L52.5,11.5z"/>
<path class="st0" d="M73.8,12.4c0,4-2.6,6.3-6.1,6.3c-1.7,0-2.9-0.6-3.7-1.3c-0.2-0.2-0.6-0.1-0.6,0.2V18c0,0.2-0.2,0.3-0.4,0.3
	h-2.3c-0.2,0-0.4-0.2-0.4-0.4V0.4c0-0.2,0.2-0.4,0.4-0.4h2.5c0.2,0,0.4,0.2,0.4,0.4v6.3C63.6,7,64,7.2,64.2,7
	c0.9-0.8,2.2-1.2,3.6-1.2C71.2,5.8,73.9,8.2,73.8,12.4z M70.5,12.2c0-2.2-1.4-3.5-3.4-3.5s-3.4,1.4-3.4,3.5s1.4,3.5,3.4,3.5
	S70.5,14.4,70.5,12.2z"/>
<path class="st0" d="M83.7,18c0-0.1,0-0.1,0-0.2c0-0.3-0.4-0.4-0.6-0.2c-0.7,0.6-1.8,1-3.2,1c-2.6,0-4.5-1.4-4.5-4
	c0-2.5,1.8-3.8,4.5-3.8h3.2c0.2,0,0.4-0.2,0.4-0.4v-0.1c0-1.5-1-2.1-2.5-2.1c-1.3,0-2.2,0.5-2.8,1.4c-0.1,0.2-0.3,0.2-0.5,0.1
	l-1.7-1c-0.2-0.1-0.2-0.3-0.1-0.5c1.2-1.9,3.1-2.6,5.4-2.6c2.8,0,5.4,1.2,5.4,5.1v4.7c0,0.9,0.1,1.8,0.1,2.3c0,0.2-0.1,0.4-0.4,0.4
	H84C83.8,18.3,83.7,18.2,83.7,18z M83.5,13.1h-2.9c-1.3,0-2,0.6-2,1.6s0.8,1.6,2.1,1.6c1.2,0,2.8-0.6,2.8-2.9V13.1L83.5,13.1z"/>
<path class="st0" d="M95.2,5.8c2.8,0,4.9,1.4,5.7,3.5c0.1,0.2,0,0.4-0.2,0.5l-2.1,0.8c-0.2,0.1-0.4,0-0.5-0.2
	c-0.5-1-1.6-1.7-2.8-1.7c-2,0-3.2,1.4-3.2,3.6s1.3,3.5,3.2,3.5c1.3,0,2.4-0.6,2.9-1.6c0.1-0.2,0.3-0.2,0.5-0.2l2.1,0.8
	c0.2,0.1,0.3,0.3,0.2,0.5c-0.9,2.2-3.1,3.5-5.7,3.5c-3.8,0-6.4-2.6-6.4-6.4C88.7,8.4,91.3,5.8,95.2,5.8z"/>
<path class="st0" d="M112.1,18.1c0-0.1,0-0.1,0-0.2c-0.1-0.3-0.4-0.4-0.6-0.2c-0.8,0.7-1.9,1-3.1,1c-2.3,0-5.1-1-5.1-5.1V6.5
	c0-0.2,0.2-0.4,0.4-0.4h2.6c0.2,0,0.4,0.2,0.4,0.4v6.4c0,2.5,1.7,2.9,2.6,2.9c1.1,0,2.8-0.6,2.8-2.9V6.5c0-0.2,0.2-0.4,0.4-0.4h2.6
	c0.2,0,0.4,0.2,0.4,0.4v9.6c0,0.5,0.1,1.3,0.2,1.8c0,0.2-0.1,0.4-0.4,0.4h-2.5C112.3,18.3,112.2,18.2,112.1,18.1z"/>
<path class="st0" d="M137.7,10.7V18c0,0.2-0.2,0.4-0.4,0.4h-2.4c-0.2,0-0.4-0.2-0.4-0.4v-6.8c0-1.7-0.9-2.6-2.3-2.6
	c-1.4,0-2.5,0.8-2.5,2.8V18c0,0.2-0.2,0.4-0.4,0.4h-2.5c-0.2,0-0.4-0.2-0.4-0.4v-6.9c0-1.6-0.9-2.5-2.3-2.5s-2.5,0.9-2.5,2.8V18
	c0,0.2-0.2,0.4-0.4,0.4h-2.6c-0.2,0-0.4-0.2-0.4-0.4V6.5c0-0.2,0.2-0.4,0.4-0.4h2.3c0.2,0,0.3,0.1,0.4,0.3c0,0.3,0.4,0.4,0.6,0.2
	c0.7-0.6,1.8-0.9,3-0.9c1.6,0,2.9,0.6,3.7,1.7c0.1,0.2,0.5,0.2,0.6,0c0.7-1,2-1.7,3.7-1.7C135.8,5.8,137.7,7.5,137.7,10.7z"/>
<path class="st0" d="M4.5,14.3c2.5,0,4.5-2,4.5-4.5S7,5.3,4.5,5.3S0,7.3,0,9.8S2,14.3,4.5,14.3z"/>
<path class="st0" d="M28.5,14.3c2.5,0,4.5-2,4.5-4.5s-2-4.5-4.5-4.5S24,7.3,24,9.8S26,14.3,28.5,14.3z"/>
<path class="st0" d="M12,9.8c0-0.8,0.7-1.5,1.5-1.5h6C20.3,8.3,21,9,21,9.8s-0.7,1.5-1.5,1.5h-6C12.7,11.3,12,10.7,12,9.8z"/>
</svg>
