<svg width="138" height="19" viewBox="0 0 138 19" fill="currentColor" xmlns="http://www.w3.org/2000/svg">
  <path
    d="M52.5145 11.4701L50.5499 5.87105C50.4365 5.54891 49.971 5.54759 49.8563 5.86973L47.8701 11.4701L46.8662 14.2703L45.4966 18.1069C45.4453 18.2508 45.3063 18.3472 45.1498 18.3472H42.3675C42.1138 18.3472 41.9357 18.1003 42.0221 17.8666L48.3855 0.580902C48.4382 0.438318 48.5758 0.343262 48.731 0.343262H51.8371H51.937L58.3868 17.8666C58.4732 18.1003 58.2964 18.3472 58.0414 18.3472H55.1875C55.0297 18.3472 54.8907 18.2495 54.8394 18.1029L53.5171 14.2703L52.5145 11.4701Z"
    fill="#192026" />
  <path
    d="M73.8275 12.3547C73.8019 16.3338 71.2422 18.6667 67.7029 18.6667C66.0108 18.6667 64.7816 18.0778 64.0152 17.3742C63.7925 17.1695 63.4282 17.2936 63.3945 17.592L63.3459 18.0277C63.3256 18.2099 63.1678 18.3472 62.9816 18.3472H60.7147C60.5123 18.3472 60.3477 18.1861 60.3477 17.9881V0.359101C60.3477 0.161068 60.5123 0 60.7147 0H63.1948C63.3972 0 63.5618 0.161068 63.5618 0.359101V6.6975C63.5618 7.00908 63.9328 7.16618 64.1744 6.96287C65.1081 6.17733 66.4183 5.79711 67.7285 5.79711C71.2166 5.79711 73.8532 8.15503 73.8275 12.3547ZM70.5392 12.2068C70.5392 10.0456 69.1089 8.66992 67.0997 8.66992C65.0919 8.66992 63.6603 10.0456 63.6603 12.2068C63.6603 14.368 65.0919 15.7437 67.0997 15.7437C69.1089 15.7437 70.5392 14.368 70.5392 12.2068Z"
    fill="#192026" />
  <path
    d="M83.6654 18.0475C83.656 17.9867 83.6452 17.922 83.6357 17.8534C83.5939 17.5709 83.2525 17.4534 83.0312 17.6395C82.3228 18.2349 81.2406 18.6666 79.8549 18.6666C77.2439 18.6666 75.3359 17.217 75.3359 14.7126C75.3359 12.2569 77.1184 10.8813 79.8549 10.8813H83.1027C83.3051 10.8813 83.4697 10.7202 83.4697 10.5222V10.4641C83.4697 8.96562 82.4402 8.3768 81.0099 8.3768C79.6916 8.3768 78.8051 8.87981 78.2208 9.79604C78.1169 9.95975 77.901 10.0152 77.7297 9.92014L75.9836 8.94846C75.8015 8.8468 75.7448 8.6184 75.8541 8.44413C77.055 6.52717 78.998 5.7984 81.211 5.7984C84.023 5.7984 86.6582 7.00245 86.6582 10.9314V15.5984C86.6582 16.5107 86.7163 17.3939 86.7986 17.9405C86.8309 18.157 86.6596 18.3498 86.4356 18.3498H84.0284C83.8476 18.3471 83.6937 18.2217 83.6654 18.0475ZM83.494 13.0662H80.6321C79.3273 13.0662 78.6486 13.7052 78.6486 14.6624C78.6486 15.6935 79.4015 16.2585 80.7319 16.2585C81.9113 16.2585 83.4927 15.6684 83.4927 13.3105V13.0662H83.494Z"
    fill="#192026" />
  <path
    d="M95.1677 5.79712C97.9555 5.79712 100.066 7.21372 100.852 9.27063C100.923 9.45414 100.83 9.65878 100.645 9.73139L98.4992 10.575C98.3144 10.6476 98.1093 10.5605 98.027 10.3836C97.5412 9.34456 96.4725 8.69633 95.219 8.69633C93.2355 8.69633 92.0305 10.1209 92.0305 12.2583C92.0305 14.4684 93.311 15.7701 95.219 15.7701C96.4995 15.7701 97.5723 15.1377 98.0756 14.1343C98.1592 13.9667 98.3562 13.8848 98.5343 13.9495L100.623 14.7113C100.817 14.7826 100.915 14.9978 100.835 15.1866C99.9336 17.3398 97.7423 18.6693 95.1434 18.6693C91.3019 18.6693 88.7422 16.1147 88.7422 12.2583C88.7408 8.37552 91.3019 5.79712 95.1677 5.79712Z"
    fill="#192026" />
  <path
    d="M112.141 18.0726C112.126 18.0079 112.111 17.9405 112.099 17.8719C112.045 17.5946 111.707 17.4798 111.494 17.6686C110.724 18.3472 109.636 18.6667 108.4 18.6667C106.066 18.6667 103.254 17.6356 103.254 13.5825V6.52323C103.254 6.32519 103.419 6.16412 103.621 6.16412H106.175C106.378 6.16412 106.542 6.32519 106.542 6.52323V12.9435C106.542 15.4493 108.199 15.8176 109.103 15.8176C110.183 15.8176 111.915 15.2526 111.915 12.9197V6.52323C111.915 6.32519 112.08 6.16412 112.282 6.16412H114.837C115.039 6.16412 115.204 6.32519 115.204 6.52323V16.0869C115.204 16.553 115.267 17.3412 115.367 17.93C115.405 18.1478 115.232 18.3458 115.005 18.3458H112.5C112.327 18.3472 112.178 18.2349 112.141 18.0726Z"
    fill="#192026" />
  <path
    d="M137.667 10.6595V17.9881C137.667 18.1861 137.502 18.3472 137.3 18.3472H134.871C134.668 18.3472 134.504 18.1861 134.504 17.9881V11.1506C134.504 9.45544 133.575 8.59598 132.169 8.59598C130.813 8.59598 129.658 9.43168 129.658 11.445V17.9881C129.658 18.1861 129.494 18.3472 129.291 18.3472H126.811C126.609 18.3472 126.444 18.1861 126.444 17.9881V11.1268C126.444 9.48185 125.54 8.5973 124.135 8.5973C122.779 8.5973 121.624 9.45676 121.624 11.4463V17.9894C121.624 18.1874 121.46 18.3485 121.257 18.3485H118.703C118.501 18.3485 118.336 18.1874 118.336 17.9894V6.52322C118.336 6.32519 118.501 6.16412 118.703 6.16412H121.045C121.233 6.16412 121.389 6.30142 121.41 6.48361C121.442 6.77274 121.792 6.90081 122.018 6.71069C122.747 6.10075 123.782 5.79578 124.99 5.79578C126.617 5.79578 127.918 6.38064 128.72 7.50019C128.869 7.70746 129.181 7.70086 129.325 7.49095C130.045 6.44137 131.327 5.79578 133.022 5.79578C135.76 5.7971 137.667 7.51603 137.667 10.6595Z"
    fill="#192026" />
  <path
    d="M4.5 14.3301C6.98528 14.3301 9 12.3154 9 9.83008C9 7.3448 6.98528 5.33008 4.5 5.33008C2.01472 5.33008 0 7.3448 0 9.83008C0 12.3154 2.01472 14.3301 4.5 14.3301Z"
    fill="#26CCA3" />
  <path
    d="M28.5 14.3301C30.9853 14.3301 33 12.3154 33 9.83008C33 7.3448 30.9853 5.33008 28.5 5.33008C26.0147 5.33008 24 7.3448 24 9.83008C24 12.3154 26.0147 14.3301 28.5 14.3301Z"
    fill="#006EA5" />
  <path
    d="M12 9.83008C12 9.00165 12.6716 8.33008 13.5 8.33008H19.5C20.3284 8.33008 21 9.00165 21 9.83008C21 10.6585 20.3284 11.3301 19.5 11.3301H13.5C12.6716 11.3301 12 10.6585 12 9.83008Z"
    fill="#FFE380" />
</svg>
