<svg width="24" height="24" viewBox="0 0 24 24" fill="none" xmlns="http://www.w3.org/2000/svg">
  <path
    d="M9.07203 20.4402C16.168 20.4402 20.048 14.5602 20.048 9.46416C20.048 9.29616 20.048 9.12816 20.04 8.96816C20.792 8.42416 21.448 7.74416 21.968 6.96816C21.28 7.27216 20.536 7.48016 19.752 7.57616C20.552 7.09616 21.16 6.34416 21.448 5.44016C20.704 5.88016 19.88 6.20016 19 6.37616C18.296 5.62416 17.296 5.16016 16.184 5.16016C14.056 5.16016 12.328 6.88816 12.328 9.01616C12.328 9.32016 12.36 9.61616 12.432 9.89616C9.22403 9.73616 6.38403 8.20016 4.48003 5.86416C4.15203 6.43216 3.96003 7.09616 3.96003 7.80016C3.96003 9.13616 4.64003 10.3202 5.68003 11.0082C5.04803 10.9922 4.45603 10.8162 3.93603 10.5282C3.93603 10.5442 3.93603 10.5602 3.93603 10.5762C3.93603 12.4482 5.26403 14.0002 7.03203 14.3602C6.71203 14.4482 6.36803 14.4962 6.01603 14.4962C5.76803 14.4962 5.52803 14.4722 5.28803 14.4242C5.77603 15.9602 7.20003 17.0722 8.88803 17.1042C7.56803 18.1362 5.90403 18.7522 4.09603 18.7522C3.78403 18.7522 3.48003 18.7362 3.17603 18.6962C4.86403 19.8002 6.89603 20.4402 9.07203 20.4402Z"
    fill="#C2C7CC" />
</svg>
